<?xml version="1.0" encoding="UTF-8" standalone="no"?>
<!-- Created with Inkscape (http://www.inkscape.org/) -->

<svg
   version="1.1"
   id="svg1"
   width="1024"
   height="1024"
   viewBox="0 0 1024 1024"
   sodipodi:docname="Eichel4Claud_Leer4_schlecht_Variante.svg"
   inkscape:version="1.4.2 (f4327f4, 2025-05-13)"
   xmlns:inkscape="http://www.inkscape.org/namespaces/inkscape"
   xmlns:sodipodi="http://sodipodi.sourceforge.net/DTD/sodipodi-0.dtd"
   xmlns="http://www.w3.org/2000/svg"
   xmlns:svg="http://www.w3.org/2000/svg">
  <defs
     id="defs1">
    <linearGradient
       id="swatch16"
       inkscape:swatch="solid">
      <stop
         style="stop-color:#6f6f6f;stop-opacity:1;"
         offset="0"
         id="stop16" />
    </linearGradient>
  </defs>
  <sodipodi:namedview
     id="namedview1"
     pagecolor="#ffffff"
     bordercolor="#000000"
     borderopacity="0.25"
     inkscape:showpageshadow="2"
     inkscape:pageopacity="0.0"
     inkscape:pagecheckerboard="0"
     inkscape:deskcolor="#d1d1d1"
     inkscape:zoom="1"
     inkscape:cx="551"
     inkscape:cy="525.5"
     inkscape:window-width="1920"
     inkscape:window-height="991"
     inkscape:window-x="-9"
     inkscape:window-y="-9"
     inkscape:window-maximized="1"
     inkscape:current-layer="layer3"
     showguides="true">
    <sodipodi:guide
       position="-37.09185,635.86028"
       orientation="1,0"
       id="guide14"
       inkscape:locked="false" />
  </sodipodi:namedview>
  <g
     inkscape:groupmode="layer"
     inkscape:label="Image"
     id="g1"
     style="display:none">
    <path
       style="fill:#cccccc"
       d="m 547.54011,850.23891 c -17.76664,-0.49131 -62.60788,-3.33737 -77,-4.88717 -19.25885,-2.07387 -42.35792,-5.72742 -65.5,-10.36005 -17.21554,-3.44624 -21.68393,-3.96244 -38.1418,-4.40626 -16.34007,-0.44064 -19.27717,-0.77604 -23.78768,-2.71641 -9.85428,-4.2392 -15.41106,-12.79709 -24.47585,-37.69482 -7.66607,-21.05594 -9.75133,-25.56429 -13.99899,-30.26595 -5.55982,-6.15405 -14.00541,-19.52437 -20.04078,-31.7268 -14.77621,-29.87483 -24.10679,-66.91562 -27.64539,-109.74742 -1.45599,-17.6235 -0.59506,-62.79518 1.4933,-78.35076 5.26257,-39.19943 17.0563,-83.48597 31.06427,-116.64924 6.73959,-15.95567 18.68835,-39.90977 23.94331,-48 2.50075,-3.85 4.55644,-7.57215 4.56821,-8.27144 0.0118,-0.69929 1.1773,-3.01812 2.59006,-5.15295 4.10842,-6.20824 5.48446,-12.11096 4.38632,-18.8157 -3.21935,-19.65576 1.55422,-43.56263 13.43003,-67.25991 31.14658,-62.15069 80.86476,-99.02485 145.11499,-107.62648 14.28745,-1.91276 42.82366,-2.15129 60,-0.50152 34.46322,3.31015 69.50905,12.19463 100.74082,25.53884 5.90745,2.52404 11.08245,4.57924 11.5,4.56711 0.41755,-0.0121 1.79178,-3.24856 3.05384,-7.19208 6.01979,-18.80974 20.63599,-42.30213 35.66388,-57.32195 22.88155,-22.86927 51.0581,-35.463924 79.33934,-35.463924 22.38013,0 46.16773,10.704064 62.87558,28.293064 9.8397,10.35864 12.0702,17.23338 8.7514,26.97333 -2.2941,6.73285 -8.3748,13.09133 -16.20647,16.94686 -6.20123,3.05285 -7.38946,3.28675 -16.69736,3.28675 -9.38363,0 -10.54717,-0.23427 -18.29292,-3.68318 -10.87491,-4.84222 -17.01186,-6.11808 -27.26474,-5.6683 -9.76088,0.42821 -17.80391,3.63897 -26.56086,10.60304 -11.80607,9.38893 -27.41958,36.5485 -27.39592,47.65499 0.0105,4.91088 2.9715,8.21626 15.16956,16.93365 16.06803,11.48309 27.51822,20.53999 40.82385,32.29097 62.1304,54.871 91.99996,111.80246 91.99996,175.352 0,39.12525 -10.8406,77.04976 -30.42278,106.43031 -13.8453,20.77309 -35.32189,39.25823 -54.26409,46.70571 l -8.00827,3.14861 -5.22545,11.6161 c -20.11787,44.72179 -54.12855,93.95519 -89.57937,129.67391 -24.12982,24.31216 -40.12121,36.57583 -72.70811,55.75928 l -3.70811,2.18291 61.70811,0.007 c 50.6227,0.005 65.21114,0.32089 81.20811,1.75599 40.28201,3.61373 61.24936,7.25371 71.8023,12.46506 5.0452,2.49146 5.73452,3.19603 6.01922,6.15243 0.64936,6.74315 -6.02271,10.33271 -27.11958,14.59027 -44.66513,9.01348 -160.43398,15.12296 -243.20194,12.83413 z M 311.75549,608.68403 c 3.72037,-4.05563 7.32681,-12.664 10.9203,-26.06613 3.7521,-13.99369 14.03564,-48.15422 17.51543,-58.18387 4.02825,-11.61047 16.71091,-45.17134 22.86296,-60.5 13.4545,-33.5237 15.64951,-42.35545 12.54637,-50.48091 -2.92447,-7.65763 -8.28015,-10.26675 -14.48645,-7.05735 -3.93203,2.03333 -14.30812,13.57688 -20.25884,22.53826 -6.53669,9.84381 -17.4912,32.40036 -23.2146,47.80145 -8.05713,21.6809 -15.42652,51.54958 -19.20697,77.84727 -2.39347,16.64953 -2.43364,38.10284 -0.0856,45.70475 3.00646,9.73345 8.83342,13.38266 13.40737,8.39653 z"
       id="path10" />
    <path
       style="fill:#999999"
       d="m 528.54011,846.93172 c -53.82383,-2.65794 -93.95717,-7.69949 -132,-16.58183 -4.58412,-1.07032 -14.24765,-1.85932 -28,-2.28614 -20.7874,-0.64515 -21.05368,-0.68138 -26.30245,-3.57821 -5.13179,-2.83227 -10.11417,-8.41107 -13.44238,-15.05151 -0.82698,-1.65 -4.0888,-10.2 -7.24848,-19 -3.15968,-8.8 -6.56657,-17.62114 -7.57087,-19.60252 l -1.82599,-3.60253 34.39042,35.21065 c 21.99201,22.51652 142.72788,-7.20579 180.45657,-26.51397 94.43023,-48.326 145.66388,-125.75805 197.20983,-206.81464 18.29953,-28.77622 -122.21281,-123.4753 -71.64897,-80.91947 35.76224,30.09842 -15.23838,-14.40263 -28.14173,-23.97887 -67.43977,-50.05055 -157.98233,-89.03661 -233.37595,-100.48764 -13.17729,-2.00141 -52.68428,-1.68508 -61.31205,0.49093 -3.74663,0.94493 -7.15854,1.71806 -7.58203,1.71806 -0.42349,0 0.76752,-3.0375 2.64667,-6.75 3.39756,-6.71228 3.41266,-6.80309 2.70234,-16.25 -1.9207,-25.54453 1.18753,-41.16768 13.03126,-65.5 4.89443,-10.05534 14.82638,-26.5 16.00501,-26.5 0.26934,0 -1.11496,2.8125 -3.07623,6.25 -7.56779,13.264 -8.91538,16.85677 -8.90823,23.75 0.008,7.71584 2.51034,12.60352 8.29367,16.19959 3.06705,1.9071 5.06739,2.29687 11.69959,2.27971 7.01805,-0.0182 8.75238,-0.41138 14.12968,-3.20365 3.37132,-1.75063 6.36094,-2.9517 6.64359,-2.66905 0.79031,0.79031 -1.82154,9.82509 -4.37607,15.13747 -2.93222,6.09783 -11.78867,14.94498 -19.15729,19.13719 -3.16805,1.80239 -5.54639,3.62284 -5.2852,4.04546 0.26119,0.42261 8.25323,1.0477 17.76009,1.38908 42.00961,1.50854 82.68387,11.2018 134.67973,32.09613 9.01699,3.62344 17.16296,6.58807 18.10217,6.58807 1.32612,0 1.95043,-1.46513 2.7943,-6.55776 0.59766,-3.60677 2.24922,-8.54152 3.67012,-10.96612 2.8456,-4.85563 8.85941,-10.01409 10.49566,-9.00283 0.57377,0.35461 1.04322,2.78081 1.04322,5.39156 0,7.09793 3.50435,16.29049 8.27728,21.71282 7.15741,8.13124 13.37714,9.19637 28.35535,4.85586 12.67515,-3.67312 33.48183,-13.84712 41.35266,-20.22053 l 2.3893,-1.93475 -3.69665,-5.03584 c -8.42062,-11.47119 -11.7242,-24.35249 -9.26739,-36.13541 1.58642,-7.6085 2.87109,-10.4935 7.50628,-16.857 3.82831,-5.25575 6.08317,-5.5728 6.08317,-0.85534 0,5.89873 3.71787,15.91574 7.58333,20.43166 6.90292,8.0645 18.04061,11.12005 28.21512,7.74062 18.26699,-6.06732 41.4532,-32.24678 46.55665,-52.56694 1.68232,-6.69845 1.39205,-7.59831 -2.90893,-9.01777 -4.11442,-1.35788 -12.80267,-9.00261 -16.0153,-14.09174 -3.87325,-6.13562 -6.45074,-15.3773 -7.11684,-25.51763 -0.60249,-9.17218 -0.73383,-9.58781 -3.71929,-11.77022 -1.70211,-1.24427 -6.69474,-3.76612 -11.09474,-5.60412 -4.4,-1.838 -8.34755,-3.63462 -8.77234,-3.99251 -1.26657,-1.06707 3.08113,-13.74503 8.75777,-25.5378 15.83107,-32.88782 39.55068,-56.47344 68.54373,-68.15655 32.24088,-12.991864 61.68362,-9.524324 88.51036,10.42405 13.52774,10.05923 19.39324,18.22038 19.43854,27.04641 0.044,8.63302 -5.0946,16.40236 -13.9822,21.1394 -11.30373,6.02483 -22.67208,5.92271 -36.9631,-0.33202 -10.76247,-4.71039 -16.90419,-5.94182 -26.61354,-5.33608 -6.93026,0.43237 -9.53656,1.12533 -15.71569,4.1785 -16.77357,8.28797 -32.36635,28.16208 -38.73786,49.37417 -2.0922,6.96537 -2.11843,7.5054 -0.56236,11.57991 1.95301,5.11389 4.03348,7.10009 17.09669,16.32209 50.64748,35.75468 88.71282,76.80648 109.25846,117.83042 14.1385,28.23075 20.3706,54.64003 20.4164,86.51702 0.058,40.53531 -10.7957,77.8409 -31.27312,107.48675 -13.59257,19.67845 -35.23487,37.51605 -53.40174,44.01377 -6.513,2.3295 -7.36167,3.05082 -9.27967,7.88733 -9.41032,23.72947 -35.68277,68.03184 -56.07451,94.55662 -33.3476,43.37726 -64.8195,71.77581 -105.29468,95.01225 -7.213,4.14091 -13.05319,7.96967 -12.97819,8.50834 0.0803,0.57695 4.34637,0.92273 10.3817,0.84148 56.56264,-0.7615 110.60501,-0.55243 124.74535,0.48259 48.45648,3.54683 75.19066,7.64083 86.04051,13.17601 4.54647,2.31943 5.29892,3.33452 4.45133,6.00505 -2.87216,9.04938 -56.9459,17.06397 -141.99184,21.04546 -29.37416,1.37518 -123.7082,1.97794 -145,0.92651 z M 755.84602,475.34357 c 4.01826,-1.96573 7.13144,-4.09954 6.91818,-4.7418 -0.21325,-0.64226 -2.6104,-1.44354 -5.327,-1.78063 -2.71659,-0.33709 -6.93773,-1.63244 -9.38029,-2.87854 -5.93194,-3.02625 -13.90766,-11.35589 -17.55293,-18.33185 -1.63013,-3.11958 -3.28981,-5.67304 -3.68819,-5.67434 -1.66643,-0.005 -3.94395,6.61672 -4.48171,13.0312 -0.74343,8.86758 0.99359,15.18732 5.37997,19.57369 6.47853,6.47854 15.97522,6.74936 28.13197,0.80227 z m -99.16195,-48.00994 c 5.25584,-1.7844 12.35604,-5.96557 12.35604,-7.27622 0,-0.46834 -2.06578,-1.13468 -4.59062,-1.48075 -6.37344,-0.87357 -12.39451,-3.7324 -17.4387,-8.27996 -4.40637,-3.97253 -8.94362,-12.13099 -8.96091,-16.11267 -0.0138,-3.1754 -1.35282,-2.80009 -4.43713,1.24365 -9.68881,12.70268 -8.37838,27.06983 2.92736,32.09471 4.13148,1.83625 14.46464,1.73942 20.14396,-0.18876 z m 68.32785,-56.38522 c 4.23431,-2.16018 13.02819,-9.603 13.02819,-11.02659 0,-0.41662 -2.92398,-0.52278 -6.49772,-0.23591 -9.2379,0.74153 -13.78714,-1.26146 -22.28831,-9.81331 -3.79358,-3.81622 -7.38136,-6.93857 -7.97284,-6.93857 -1.22282,0 -3.26322,8.48723 -3.19724,13.29922 0.0564,4.11231 2.25195,10.2564 4.61103,12.9036 4.64242,5.20943 14.14458,5.98076 22.31689,1.81156 z M 528.74279,324.55683 c -17.68006,-6.60983 -25.04081,-24.72669 -17.78529,-43.77459 3.64113,-9.55905 10.40151,-18.00522 13.08436,-16.34713 0.54904,0.33933 1.00579,3.8529 1.015,7.80794 0.0136,5.83711 0.53587,8.22199 2.77397,12.66713 7.56014,15.01537 24.7846,19.11023 44.45928,10.56954 5.049,-2.19175 -1.36017,10.75115 -9.11634,18.40985 -3.09851,3.05958 -8.2515,6.82496 -11.45108,8.3675 -7.11408,3.42976 -17.24535,4.44367 -22.9799,2.29976 z m -98.3785,-1.06229 c -18.10925,-5.66242 -26.25167,-25.93342 -17.81717,-44.3568 3.07689,-6.72081 8.4776,-14.12996 10.33089,-14.17279 1.00937,-0.0233 1.17165,0.95308 0.66087,3.97635 -0.90726,5.37003 1.08906,16.62217 3.80949,21.47199 3.07584,5.48342 9.55151,10.12214 16.21109,11.61248 7.37219,1.64983 15.5673,0.13983 25.30563,-4.66273 4.02874,-1.98681 7.60382,-3.33354 7.94461,-2.99275 1.15863,1.15863 -4.79438,11.67593 -9.38931,16.58827 -10.79892,11.54492 -24.93331,16.32655 -37.0561,12.53598 z m 183.17582,-57.43285 c -14.75531,-3.90068 -24.04846,-17.94969 -20.52614,-31.0306 0.64901,-2.41023 2.9454,-8.09805 5.10308,-12.63959 4.61924,-9.72267 4.88605,-13.15957 1.34801,-17.36429 -3.66474,-4.3553 -10.43097,-6.09318 -23.72308,-6.09318 -10.86457,0 -10.93097,-0.0145 -10.29018,-2.25 4.195,-14.63481 4.30301,-19.76195 0.45963,-21.81887 -3.75557,-2.00992 -1.25106,-1.98454 9.73076,0.0986 18.06851,3.42741 39.89837,9.71058 57.89792,16.66443 11.08754,4.28351 12.31086,5.30584 6.34894,5.30584 -5.0361,0 -12.47435,3.3926 -17.15467,7.82428 -1.54314,1.46118 -4.24314,5.5765 -6,9.14517 -2.73408,5.55371 -3.19427,7.57203 -3.19427,14.00952 0,6.42143 0.40594,8.21161 2.77658,12.24445 5.48053,9.3233 17.06156,12.8767 30.29357,9.29496 3.58456,-0.97029 6.80806,-1.4735 7.16333,-1.11823 1.42939,1.42939 -9.45991,10.84102 -16.45429,14.22145 -7.64297,3.6939 -17.54557,5.15396 -23.77919,3.50606 z M 508.33018,241.94854 c -9.78818,-4.93444 -14.72276,-12.29343 -15.91922,-23.74048 -0.81217,-7.77047 1.23016,-14.70501 8.40461,-28.53701 l 5.58259,-10.76298 -1.63018,-3.41851 c -1.33012,-2.7893 -2.42142,-3.58571 -5.92902,-4.3269 l -4.29885,-0.90838 5.99105,-0.80547 c 7.76391,-1.04381 37.47445,0.0507 38.85515,1.43142 0.7384,0.7384 0.29349,1.0538 -1.48648,1.0538 -4.27906,0 -14.52705,5.81516 -18.7973,10.66643 -5.21917,5.92929 -8.26386,14.05008 -8.29116,22.11417 -0.0284,8.39504 3.5634,14.48637 10.71097,18.16464 6.893,3.54726 18.42372,3.62213 26.80371,0.17403 3.18226,-1.3094 6.06161,-2.10505 6.39855,-1.76811 0.95548,0.95548 -4.36134,8.055 -10.03744,13.40292 -7.34142,6.91695 -13.47411,9.63919 -22.64705,10.05281 -6.77429,0.30547 -8.10088,0.0353 -13.70993,-2.79238 z m -92.72578,0.85951 c -3.77056,-0.88133 -9.6037,-4.57408 -12.3737,-7.83333 -2.54762,-2.99759 -6.061,-11.62122 -7.24815,-17.79069 -0.66146,-3.4375 -1.5941,-6.25 -2.07255,-6.25 -0.47844,0 -0.86989,-0.40627 -0.86989,-0.90283 0,-1.28288 16.19982,-12.70706 23.96799,-16.90232 l 6.53201,-3.52766 -2.63998,2.91641 c -9.76865,10.79149 -9.19461,26.46256 1.15991,31.66485 5.80357,2.91581 15.003,2.35885 23.16306,-1.40237 3.76338,-1.73465 7.11087,-2.88556 7.43885,-2.55757 1.91548,1.91548 -13.12723,16.38171 -20.82425,20.0262 -6.44419,3.05129 -11.0332,3.77478 -16.2333,2.55931 z"
       id="path7"
       sodipodi:nodetypes="ssssssscssssssssssssssssssssssssssssssscsssssssssssssssscsssssssscssssssssssssssssscssssssssssssssssssssssssssssssssssssssssssssssssssssssssssscsscssssssssssssssssscssssss" />
    <ellipse
       style="fill:#cccccc"
       id="path11"
       cx="460.33636"
       cy="262.29236"
       rx="28.481241"
       ry="21.195343" />
    <path
       style="fill:#ffffff"
       d="m 274.74963,610.72459 c 3.13218,62.98534 24.34921,114.4699 44.50522,137.73596 13.08707,23.16646 30.0181,22.37461 47.60081,18.19937 37.24459,1.16236 83.08853,-12.68615 169.58411,-76.46051 C 590.3696,641.21095 660.61525,567.7012 640.55575,519.49104 611.10921,465.59199 520.74564,416.17444 451.33737,396.66806 c -95.07528,-21.32084 -114.19057,0.17413 -136.34262,25.69139 -32.07049,37.6159 -49.30499,131.15212 -40.24512,188.36514 z"
       id="path13"
       inkscape:transform-center-x="3.9741268"
       inkscape:transform-center-y="-3.9741268"
       sodipodi:nodetypes="cccccccc" />
    <path
       style="fill:#cccccc"
       d="m 666.32859,210.62872 c 0,0 -1.3247,-41.06598 38.41656,-75.50841 39.74127,-34.44243 84.78137,-35.767141 105.97671,-15.89651 21.19535,19.87064 22.65874,28.77877 -1.3247,19.87064 -46.36481,-17.22121 -76.83312,-6.62355 -100.67788,22.52005 -23.84476,29.1436 -23.84477,43.71539 -26.49418,66.23545 -2.64942,22.52005 -15.89651,-17.22122 -15.89651,-17.22122 z"
       id="path14"
       sodipodi:nodetypes="csssssc" />
  </g>
  <g
     inkscape:groupmode="layer"
     id="layer2"
     inkscape:label="Image 2"
     style="display:none" />
  <g
     inkscape:groupmode="layer"
     id="layer1"
     inkscape:label="Image 1"
     style="display:none">
    <ellipse
       style="fill:#ffffff"
       id="path12"
       cx="450.51877"
       cy="270.68307"
       rx="32.455368"
       ry="33.780079" />
    <ellipse
       style="fill:#ffffff;stroke-width:0.79991"
       id="path12-5"
       cx="549.83441"
       cy="271.45535"
       rx="27.156532"
       ry="25.831827" />
    <ellipse
       style="fill:#cccccc;stroke-width:0.79991"
       id="path12-5-6"
       cx="650.56146"
       cy="405.67917"
       rx="27.156532"
       ry="25.831827" />
    <ellipse
       style="fill:#cccccc;stroke-width:0.79991"
       id="path12-5-6-1"
       cx="719.04144"
       cy="353.8176"
       rx="27.156532"
       ry="25.831827" />
    <ellipse
       style="fill:#ffffff;stroke-width:0.641434"
       id="path12-52"
       cx="365.71411"
       cy="278.37646"
       rx="19.208279"
       ry="19.870636" />
    <ellipse
       style="fill:#ffffff;stroke-width:0.641434"
       id="path12-52-2"
       cx="437.01553"
       cy="206.88228"
       rx="19.208279"
       ry="19.870636" />
    <rect
       style="fill:#ffffff"
       id="rect12"
       width="10.597672"
       height="2.6494179"
       x="353.6973"
       y="274.21475" />
  </g>
  <g
     inkscape:groupmode="layer"
     id="layer3"
     inkscape:label="Image 3"
     style="display:inline">
    <path
       style="fill:#ff0000"
       d="m 584.07337,275.6421 c 11.57096,-11.37012 32.86334,-18.86133 34.49934,-3.86219 0.0758,0.69527 3.01812,1.1773 5.15295,2.59006 6.20824,4.10842 12.11096,5.48446 18.8157,4.38632 19.65576,-3.21935 43.56263,1.55422 67.25991,13.43003 62.15069,31.14658 99.02485,80.86476 107.62648,145.11499 1.91276,14.28745 2.15129,42.82366 0.50152,60 -3.31015,34.46322 -12.19463,69.50905 -25.53884,100.74082 -2.52404,5.90745 -4.57924,11.08245 -4.56711,11.5 0.0121,0.41755 3.24856,1.79178 7.19208,3.05384 18.80974,6.01979 42.30213,20.63599 57.32195,35.66388 22.86927,22.88155 35.46392,51.0581 35.46392,79.33934 0,22.38013 -10.70406,46.16773 -28.29306,62.87558 -10.35864,9.8397 -17.23338,12.0702 -26.97333,8.7514 -6.73285,-2.2941 -13.09133,-8.3748 -16.94686,-16.20647 -3.05285,-6.20123 -3.28675,-7.38946 -3.28675,-16.69736 0,-9.38363 0.23427,-10.54717 3.68318,-18.29292 4.84222,-10.87491 6.11808,-17.01186 5.6683,-27.26474 -0.42821,-9.76088 -3.63897,-17.80391 -10.60304,-26.56086 -9.38893,-11.80607 -36.5485,-27.41958 -47.65499,-27.39592 -4.91088,0.0105 -8.21626,2.9715 -16.93365,15.16956 -11.48309,16.06803 -20.53999,27.51822 -32.29097,40.82385 -54.871,62.1304 -111.80246,91.99996 -175.352,91.99996 -39.12525,0 -77.04976,-10.8406 -106.43031,-30.42278 -20.77309,-13.8453 -39.25823,-35.32189 -46.70571,-54.26409 l -3.14861,-8.00827 -2.34314,-15.82312 C 369.42952,633.61562 458.48025,399.05525 584.07337,275.6421 Z"
       id="path10-9"
       sodipodi:nodetypes="ssssssssssssssssssssssssscss" />
    <path
       style="fill:#ee0000;fill-opacity:1"
       d="m 416.62428,699.1633 c 106.03849,-56.8302 180.38805,-210.34685 208.48996,-350.98936 8.47937,-42.43696 -5.31297,-65.89892 -5.31297,-72.26671 0,-0.42349 -10.48887,-15.63365 7.68671,-13.74577 11.83844,1.22965 16.7049,3.17575 28.09202,7.48004 24.33857,9.19989 28.38895,12.80227 52.72127,24.646 10.05534,4.89443 26.5,14.82638 26.5,16.00501 0,0.26934 -2.8125,-1.11496 -6.25,-3.07623 -13.264,-7.56779 -16.85677,-8.91538 -23.75,-8.90823 -7.71584,0.008 -12.60352,2.51034 -16.19959,8.29367 -1.9071,3.06705 -2.29687,5.06739 -2.27971,11.69959 0.0182,7.01805 0.41138,8.75238 3.20365,14.12968 1.75063,3.37132 2.9517,6.36094 2.66905,6.64359 -0.79031,0.79031 -9.82509,-1.82154 -15.13747,-4.37607 -6.09783,-2.93222 -14.94498,-11.78867 -19.13719,-19.15729 -1.80239,-3.16805 -3.62284,-5.54639 -4.04546,-5.2852 -0.42261,0.26119 -1.0477,8.25323 -1.38908,17.76009 -1.50854,42.00961 -11.2018,82.68387 -32.09613,134.67973 -3.62344,9.01699 -6.58807,17.16296 -6.58807,18.10217 0,1.32612 1.46513,1.95043 6.55776,2.7943 3.60677,0.59766 8.54152,2.24922 10.96612,3.67012 4.85563,2.8456 10.01409,8.85941 9.00283,10.49566 -0.35461,0.57377 -2.78081,1.04322 -5.39156,1.04322 -7.09793,0 -16.29049,3.50435 -21.71282,8.27728 -8.13124,7.15741 -9.19637,13.37714 -4.85586,28.35535 3.67312,12.67515 13.84712,33.48183 20.22053,41.35266 l 1.93475,2.3893 5.03584,-3.69665 c 11.47119,-8.42062 24.35249,-11.7242 36.13541,-9.26739 7.6085,1.58642 10.4935,2.87109 16.857,7.50628 5.25575,3.82831 5.5728,6.08317 0.85534,6.08317 -5.89873,0 -15.91574,3.71787 -20.43166,7.58333 -8.0645,6.90292 -11.12005,18.04061 -7.74062,28.21512 6.06732,18.26699 32.24678,41.4532 52.56694,46.55665 6.69845,1.68232 7.59831,1.39205 9.01777,-2.90893 1.35788,-4.11442 9.00261,-12.80267 14.09174,-16.0153 6.13562,-3.87325 15.3773,-6.45074 25.51763,-7.11684 9.17218,-0.60249 9.58781,-0.73383 11.77022,-3.71929 1.24427,-1.70211 3.76612,-6.69474 5.60412,-11.09474 1.838,-4.4 3.63462,-8.34755 3.99251,-8.77234 1.06707,-1.26657 13.74503,3.08113 25.5378,8.75777 32.88782,15.83107 56.47344,39.55068 68.15655,68.54373 12.99186,32.24088 9.52432,61.68362 -10.42405,88.51036 -10.05923,13.52774 -18.22038,19.39324 -27.04641,19.43854 -8.63302,0.044 -16.40236,-5.0946 -21.1394,-13.9822 -6.02483,-11.30373 -5.92271,-22.67208 0.33202,-36.9631 4.71039,-10.76247 5.94182,-16.90419 5.33608,-26.61354 -0.43237,-6.93026 -1.12533,-9.53656 -4.1785,-15.71569 -8.28797,-16.77357 -28.16208,-32.36635 -49.37417,-38.73786 -6.96537,-2.0922 -7.5054,-2.11843 -11.57991,-0.56236 -5.11389,1.95301 -7.10009,4.03348 -16.32209,17.09669 -35.75468,50.64748 -76.80646,88.71287 -117.83042,109.25846 -4.28365,2.14533 -8.52536,4.10862 -12.75059,5.89589 -23.62057,9.99145 -46.72636,14.48166 -73.76643,14.52051 -40.53531,0.058 -77.8409,-10.7957 -107.48675,-31.27312 -19.67845,-13.59257 -37.51605,-35.23487 -44.01377,-53.40174 -2.3295,-6.513 -3.05082,-7.36167 -7.88733,-9.27967 -6.37323,-3.4001 18.46356,-8.78116 37.26639,-18.85834 z m 93.76745,10.44392 c 1.96573,4.01826 4.09954,7.13144 4.7418,6.91818 0.64226,-0.21325 1.44354,-2.6104 1.78063,-5.327 0.33709,-2.71659 1.63244,-6.93773 2.87854,-9.38029 3.02625,-5.93194 11.35589,-13.90766 18.33185,-17.55293 3.11958,-1.63013 5.67304,-3.28981 5.67434,-3.68819 0.005,-1.66643 -6.61672,-3.94395 -13.0312,-4.48171 -8.86758,-0.74343 -15.18732,0.99359 -19.57369,5.37997 -6.47854,6.47853 -6.74936,15.97522 -0.80227,28.13197 z M 661.17847,482.50399 c 6.60983,-17.68006 24.72669,-25.04081 43.77459,-17.78529 9.55905,3.64113 18.00522,10.40151 16.34713,13.08436 -0.33933,0.54904 -3.8529,1.00579 -7.80794,1.015 -5.83711,0.0136 -8.22199,0.53587 -12.66713,2.77397 -15.01537,7.56014 -19.11023,24.7846 -10.56954,44.45928 2.19175,5.049 -10.75115,-1.36017 -18.40985,-9.11634 -3.05958,-3.09851 -6.82496,-8.2515 -8.3675,-11.45108 -3.42976,-7.11408 -4.44367,-17.24535 -2.29976,-22.9799 z m 1.06229,-98.3785 c 5.66242,-18.10925 25.93342,-26.25167 44.3568,-17.81717 6.72081,3.07689 14.12996,8.4776 14.17279,10.33089 0.0233,1.00937 -0.95308,1.17165 -3.97635,0.66087 -5.37003,-0.90726 -16.62217,1.08906 -21.47199,3.80949 -5.48342,3.07584 -10.12214,9.55151 -11.61248,16.21109 -1.64983,7.37219 -0.13983,15.5673 4.66273,25.30563 1.98681,4.02874 3.33354,7.60382 2.99275,7.94461 -1.15863,1.15863 -11.67593,-4.79438 -16.58827,-9.38931 -11.54492,-10.79892 -16.32655,-24.93331 -12.53598,-37.0561 z m 57.43285,183.17582 c 3.90068,-14.75531 17.94969,-24.04846 31.0306,-20.52614 2.41023,0.64901 8.09805,2.9454 12.63959,5.10308 9.72267,4.61924 13.15957,4.88605 17.36429,1.34801 4.3553,-3.66474 6.09318,-10.43097 6.09318,-23.72308 0,-10.86457 0.0145,-10.93097 2.25,-10.29018 14.63481,4.195 19.76195,4.30301 21.81887,0.45963 2.00992,-3.75557 1.98454,-1.25106 -0.0986,9.73076 -3.42741,18.06851 -9.71058,39.89837 -16.66443,57.89792 -4.28351,11.08754 -5.30584,12.31086 -5.30584,6.34894 0,-5.0361 -3.3926,-12.47435 -7.82428,-17.15467 -1.46118,-1.54314 -5.5765,-4.24314 -9.14517,-6 -5.55371,-2.73408 -7.57203,-3.19427 -14.00952,-3.19427 -6.42143,0 -8.21161,0.40594 -12.24445,2.77658 -9.3233,5.48053 -12.8767,17.06156 -9.29496,30.29357 0.97029,3.58456 1.4735,6.80806 1.11823,7.16333 -1.42939,1.42939 -10.84102,-9.45991 -14.22145,-16.45429 -3.6939,-7.64297 -5.15396,-17.54557 -3.50606,-23.77919 z m 24.11315,-105.20993 c 4.93444,-9.78818 12.29343,-14.72276 23.74048,-15.91922 7.77047,-0.81217 14.70501,1.23016 28.53701,8.40461 l 10.76298,5.58259 3.41851,-1.63018 c 2.7893,-1.33012 3.58571,-2.42142 4.3269,-5.92902 l 0.90838,-4.29885 0.80547,5.99105 c 1.04381,7.76391 -0.0507,37.47445 -1.43142,38.85515 -0.7384,0.7384 -1.0538,0.29349 -1.0538,-1.48648 0,-4.27906 -5.81516,-14.52705 -10.66643,-18.7973 -5.92929,-5.21917 -14.05008,-8.26386 -22.11417,-8.29116 -8.39504,-0.0284 -14.48637,3.5634 -18.16464,10.71097 -3.54726,6.893 -3.62213,18.42372 -0.17403,26.80371 1.3094,3.18226 2.10505,6.06161 1.76811,6.39855 -0.95548,0.95548 -8.055,-4.36134 -13.40292,-10.03744 -6.91695,-7.34142 -9.63919,-13.47411 -10.05281,-22.64705 -0.30547,-6.77429 -0.0353,-8.10088 2.79238,-13.70993 z m -0.85951,-92.72578 c 0.88133,-3.77056 4.57408,-9.6037 7.83333,-12.3737 2.99759,-2.54762 11.62122,-6.061 17.79069,-7.24815 3.4375,-0.66146 6.25,-1.5941 6.25,-2.07255 0,-0.47844 0.40627,-0.86989 0.90283,-0.86989 1.28288,0 12.70706,16.19982 16.90232,23.96799 l 3.52766,6.53201 -2.91641,-2.63998 c -10.79149,-9.76865 -26.46256,-9.19461 -31.66485,1.15991 -2.91581,5.80357 -2.35885,15.003 1.40237,23.16306 1.73465,3.76338 2.88556,7.11087 2.55757,7.43885 -1.91548,1.91548 -16.38171,-13.12723 -20.0262,-20.82425 -3.05129,-6.44419 -3.77478,-11.0332 -2.55931,-16.2333 z"
       id="path7-5"
       sodipodi:nodetypes="sssssssssssssssssssssssssscsssssssssssssssscssssssssscssssssssscssssssssssssssssssssssssssssssssssssssssssscsscssssssssssssssssscssssss" />
    <rect
       style="fill:#cccccc"
       id="rect14"
       width="532.62354"
       height="59.571808"
       x="1072.0673"
       y="302.56793" />
    <path
       style="fill:#ff4d4d;stroke:none;stroke-opacity:1;fill-opacity:1"
       d="m 468.35533,461.79836 c 45.43047,19.67092 57.0702,73.11373 60.8862,111.46857 1.40337,14.10536 -41.21527,60.41783 -41.21527,60.41783 0,0 -43.55705,44.49376 -65.10139,54.79758 -21.54435,10.30382 -35.59501,12.17724 -26.69625,-37.93678 8.89875,-50.11402 28.56967,-101.63311 41.21526,-130.20278 12.64559,-28.56968 30.91145,-58.54442 30.91145,-58.54442 z"
       id="path15"
       sodipodi:nodetypes="cscsssc" />
    <ellipse
       style="display:inline;fill:none;fill-opacity:1;stroke:#ff0000;stroke-width:14.0929;stroke-dasharray:none;stroke-opacity:1"
       id="path16"
       transform="matrix(-0.84513268,-0.5345566,0.46660813,-0.88446416,0,0)"
       ry="249.43401"
       rx="63.381256"
       cy="-150.36259"
       cx="-684.69769" />
    <ellipse
       style="display:inline;fill:#ff0000;fill-opacity:1;stroke:none;stroke-width:6.23205;stroke-dasharray:none;stroke-opacity:1"
       id="path16-3"
       cx="-831.72552"
       cy="795.43958"
       rx="20.274221"
       ry="175.30556"
       transform="matrix(0.10197075,-0.9947874,0.99988685,-0.01504259,0,0)" />
    <ellipse
       style="fill:#ff0000;fill-opacity:1;stroke:none;stroke-width:16.1294;stroke-dasharray:none;stroke-opacity:1"
       id="path17"
       ry="18.5"
       rx="21"
       cy="318.5"
       cx="706" />
    <ellipse
       style="fill:#ff0000;fill-opacity:1;stroke:none;stroke-width:15;stroke-dasharray:none;stroke-opacity:1"
       id="path18"
       cx="759.12457"
       cy="384.02353"
       rx="33"
       ry="23.5"
       transform="rotate(20)" />
    <ellipse
       style="display:inline;fill:#ff0000;fill-opacity:1;stroke:none;stroke-width:11.0899;stroke-dasharray:none;stroke-opacity:1"
       id="path18-3"
       cx="855.85571"
       cy="473.92563"
       rx="25.48068"
       ry="16.635862"
       transform="matrix(0.9510643,0.30899303,-0.37756817,0.92598179,0,0)" />
    <ellipse
       style="display:inline;fill:none;fill-opacity:1;stroke:#ff0000;stroke-width:14.6394;stroke-dasharray:none;stroke-opacity:1"
       id="path16-1"
       transform="matrix(-0.84005947,-0.54249432,0.45905781,-0.8884064,0,0)"
       ry="244.78371"
       rx="57.148434"
       cy="-133.23143"
       cx="-682.28619" />
  </g>
</svg>
