<?xml version="1.0" encoding="UTF-8" standalone="no"?>
<!-- Created with Inkscape (http://www.inkscape.org/) -->

<svg
   version="1.1"
   id="svg1"
   width="1024"
   height="1024"
   viewBox="0 0 1024 1024"
   xmlns="http://www.w3.org/2000/svg"
   xmlns:svg="http://www.w3.org/2000/svg">
  <defs
     id="defs1">
    <rect
       x="319"
       y="404"
       width="539"
       height="160"
       id="rect3" />
  </defs>
  <g
     id="layer1">
    <rect
       style="fill:#000000;stroke-width:11.526"
       id="rect2"
       width="685.42157"
       height="203.34402"
       x="136.85797"
       y="355.09177"
       rx="118.85442"
       ry="111.77249" />
  </g>
  <g
     id="layer3">
    <g
       id="g3">
      <g
         id="g2"
         transform="matrix(0.30215749,0,0,0.29521229,13.740373,278.08714)"
         style="fill:#000000">
        <path
           id="rect12"
           style="fill:#000000"
           d="m 356.34672,279.51358 h 10.59767 v 2.64942 h -10.59767 z m 102.52651,-67.33247 c 0,10.97425 -8.59984,19.87063 -19.20828,19.87063 -10.60844,0 -19.20828,-8.89638 -19.20828,-19.87063 0,-10.97425 8.59984,-19.87064 19.20828,-19.87064 10.60844,0 19.20828,8.89639 19.20828,19.87064 z m -71.30142,71.49418 c 0,10.97425 -8.59984,19.87064 -19.20828,19.87064 -10.60844,0 -19.20828,-8.89639 -19.20828,-19.87064 0,-10.97425 8.59984,-19.87063 19.20828,-19.87063 10.60844,0 19.20828,8.89638 19.20828,19.87063 z m 361.27559,75.44114 c 0,14.26652 -12.1584,25.83182 -27.15654,25.83182 -14.99813,0 -27.15653,-11.5653 -27.15653,-25.83182 0,-14.26652 12.15839,-25.83183 27.15653,-25.83183 14.99814,0 27.15654,11.5653 27.15654,25.83183 z M 680.36741,410.978 c 0,14.26652 -12.15839,25.83183 -27.15653,25.83183 -14.99814,0 -27.15653,-11.56531 -27.15653,-25.83183 0,-14.26652 12.15839,-25.83183 27.15653,-25.83183 14.99814,0 27.15653,11.56531 27.15653,25.83183 z M 579.64036,276.75418 c 0,14.26652 -12.15839,25.83183 -27.15653,25.83183 -14.99814,0 -27.15653,-11.56531 -27.15653,-25.83183 0,-14.26652 12.1584,-25.83182 27.15653,-25.83182 14.99813,0 27.15653,11.5653 27.15653,25.83182 z m -80.7697,-2.09698 c 0,18.65622 -14.53076,33.78008 -32.45537,33.78008 -17.92461,0 -32.45537,-15.12386 -32.45537,-33.78008 0,-18.65622 14.53076,-33.78008 32.45537,-33.78008 17.92461,0 32.45537,15.12386 32.45537,33.78008 z m 170.10735,-58.72965 c 0,0 -1.3247,-41.06598 38.41656,-75.5084 39.74127,-34.44243 84.78137,-35.76715 105.97671,-15.89651 21.19535,19.87064 22.65874,28.77876 -1.3247,19.87064 -46.36481,-17.22121 -76.83312,-6.62355 -100.67788,22.52004 -23.84476,29.1436 -23.84477,43.71539 -26.49418,66.23545 -2.64942,22.52005 -15.89651,-17.22122 -15.89651,-17.22122 z M 277.39905,616.02342 c 3.13218,62.98534 24.34921,114.4699 44.50522,137.73596 13.08707,23.16646 30.0181,22.37461 47.60081,18.19937 37.24459,1.16236 83.08853,-12.68615 169.58411,-76.46051 C 593.01902,646.50978 663.26467,573.00003 643.20517,524.78987 613.75863,470.89082 523.39506,421.47327 453.98679,401.96689 358.91151,380.64605 339.79622,402.14102 317.64417,427.65828 285.57368,465.27418 268.33918,558.8104 277.39905,616.02342 Z M 491.46703,267.59119 c 0,11.70587 -12.75149,21.19534 -28.48125,21.19534 -15.72975,0 -28.48124,-9.48948 -28.48124,-21.19534 0,-11.70586 12.75149,-21.19534 28.48124,-21.19534 15.72976,0 28.48125,9.48947 28.48125,21.19534 z m 39.7225,584.63936 c -53.82383,-2.65794 -93.95717,-7.69949 -132,-16.58183 -4.58412,-1.07032 -14.24765,-1.85932 -28,-2.28614 -20.7874,-0.64515 -21.05368,-0.68138 -26.30245,-3.57821 -5.13179,-2.83227 -10.11417,-8.41107 -13.44238,-15.05151 -0.82698,-1.65 -4.0888,-10.2 -7.24848,-19 -3.15968,-8.8 -6.56657,-17.62114 -7.57087,-19.60252 l -1.82599,-3.60253 34.39042,35.21065 c 21.99201,22.51652 142.72788,-7.20579 180.45657,-26.51397 94.43023,-48.326 145.66388,-125.75805 197.20983,-206.81464 18.29953,-28.77622 -122.21281,-123.4753 -71.64897,-80.91947 35.76224,30.09842 -15.23838,-14.40263 -28.14173,-23.97887 -67.43977,-50.05055 -157.98233,-89.03661 -233.37595,-100.48764 -13.17729,-2.00141 -52.68428,-1.68508 -61.31205,0.49093 -3.74663,0.94493 -7.15854,1.71806 -7.58203,1.71806 -0.42349,0 0.76752,-3.0375 2.64667,-6.75 3.39756,-6.71228 3.41266,-6.80309 2.70234,-16.25 -1.9207,-25.54453 1.18753,-41.16768 13.03126,-65.5 4.89443,-10.05534 14.82638,-26.5 16.00501,-26.5 0.26934,0 -1.11496,2.8125 -3.07623,6.25 -7.56779,13.264 -8.91538,16.85677 -8.90823,23.75 0.008,7.71584 2.51034,12.60352 8.29367,16.19959 3.06705,1.9071 5.06739,2.29687 11.69959,2.27971 7.01805,-0.0182 8.75238,-0.41138 14.12968,-3.20365 3.37132,-1.75063 6.36094,-2.9517 6.64359,-2.66905 0.79031,0.79031 -1.82154,9.82509 -4.37607,15.13747 -2.93222,6.09783 -11.78867,14.94498 -19.15729,19.13719 -3.16805,1.80239 -5.54639,3.62284 -5.2852,4.04546 0.26119,0.42261 8.25323,1.0477 17.76009,1.38908 42.00961,1.50854 82.68387,11.2018 134.67973,32.09613 9.01699,3.62344 17.16296,6.58807 18.10217,6.58807 1.32612,0 1.95043,-1.46513 2.7943,-6.55776 0.59766,-3.60677 2.24922,-8.54152 3.67012,-10.96612 2.8456,-4.85563 8.85941,-10.01409 10.49566,-9.00283 0.57377,0.35461 1.04322,2.78081 1.04322,5.39156 0,7.09793 3.50435,16.29049 8.27728,21.71282 7.15741,8.13124 13.37714,9.19637 28.35535,4.85586 12.67515,-3.67312 33.48183,-13.84712 41.35266,-20.22053 l 2.3893,-1.93475 -3.69665,-5.03584 c -8.42062,-11.47119 -11.7242,-24.35249 -9.26739,-36.13541 1.58642,-7.6085 2.87109,-10.4935 7.50628,-16.857 3.82831,-5.25575 6.08317,-5.5728 6.08317,-0.85534 0,5.89873 3.71787,15.91574 7.58333,20.43166 6.90292,8.0645 18.04061,11.12005 28.21512,7.74062 18.26699,-6.06732 41.4532,-32.24678 46.55665,-52.56694 1.68232,-6.69845 1.39205,-7.59831 -2.90893,-9.01777 -4.11442,-1.35788 -12.80267,-9.00261 -16.0153,-14.09174 -3.87325,-6.13562 -6.45074,-15.3773 -7.11684,-25.51763 -0.60249,-9.17218 -0.73383,-9.58781 -3.71929,-11.77022 -1.70211,-1.24427 -6.69474,-3.76612 -11.09474,-5.60412 -4.4,-1.838 -8.34755,-3.63462 -8.77234,-3.99251 -1.26657,-1.06707 3.08113,-13.74503 8.75777,-25.5378 15.83107,-32.88782 39.55068,-56.47343 68.54373,-68.15654 32.24088,-12.99187 61.68362,-9.52433 88.51036,10.42405 13.52774,10.05923 19.39324,18.22038 19.43854,27.0464 0.044,8.63302 -5.0946,16.40236 -13.9822,21.1394 -11.30373,6.02483 -22.67208,5.92271 -36.9631,-0.33202 -10.76247,-4.71039 -16.90419,-5.94182 -26.61354,-5.33608 -6.93026,0.43237 -9.53656,1.12533 -15.71569,4.1785 -16.77357,8.28797 -32.36635,28.16208 -38.73786,49.37417 -2.0922,6.96537 -2.11843,7.5054 -0.56236,11.57991 1.95301,5.11389 4.03348,7.10009 17.09669,16.32209 50.64748,35.75468 88.71282,76.80648 109.25846,117.83042 14.1385,28.23075 20.3706,54.64003 20.4164,86.51702 0.058,40.53531 -10.7957,77.8409 -31.27312,107.48675 -13.59257,19.67845 -35.23487,37.51605 -53.40174,44.01377 -6.513,2.3295 -7.36167,3.05082 -9.27967,7.88733 -9.41032,23.72947 -35.68277,68.03184 -56.07451,94.55662 -33.3476,43.37726 -64.8195,71.77581 -105.29468,95.01225 -7.213,4.14091 -13.05319,7.96967 -12.97819,8.50834 0.0803,0.57695 4.34637,0.92273 10.3817,0.84148 56.56264,-0.7615 110.60501,-0.55243 124.74535,0.48259 48.45648,3.54683 75.19066,7.64083 86.04051,13.17601 4.54647,2.31943 5.29892,3.33452 4.45133,6.00505 -2.87216,9.04938 -56.9459,17.06397 -141.99184,21.04546 -29.37416,1.37518 -123.7082,1.97794 -145,0.92651 z M 758.49544,480.6424 c 4.01826,-1.96573 7.13144,-4.09954 6.91818,-4.7418 -0.21325,-0.64226 -2.6104,-1.44354 -5.327,-1.78063 -2.71659,-0.33709 -6.93773,-1.63244 -9.38029,-2.87854 -5.93194,-3.02625 -13.90766,-11.35589 -17.55293,-18.33185 -1.63013,-3.11958 -3.28981,-5.67304 -3.68819,-5.67434 -1.66643,-0.005 -3.94395,6.61672 -4.48171,13.0312 -0.74343,8.86758 0.99359,15.18732 5.37997,19.57369 6.47853,6.47854 15.97522,6.74936 28.13197,0.80227 z m -99.16195,-48.00994 c 5.25584,-1.7844 12.35604,-5.96557 12.35604,-7.27622 0,-0.46834 -2.06578,-1.13468 -4.59062,-1.48075 -6.37344,-0.87357 -12.39451,-3.7324 -17.4387,-8.27996 -4.40637,-3.97253 -8.94362,-12.13099 -8.96091,-16.11267 -0.0138,-3.1754 -1.35282,-2.80009 -4.43713,1.24365 -9.68881,12.70268 -8.37838,27.06983 2.92736,32.09471 4.13148,1.83625 14.46464,1.73942 20.14396,-0.18876 z m 68.32785,-56.38522 c 4.23431,-2.16018 13.02819,-9.603 13.02819,-11.02659 0,-0.41662 -2.92398,-0.52278 -6.49772,-0.23591 -9.2379,0.74153 -13.78714,-1.26146 -22.28831,-9.81331 -3.79358,-3.81622 -7.38136,-6.93857 -7.97284,-6.93857 -1.22282,0 -3.26322,8.48723 -3.19724,13.29922 0.0564,4.11231 2.25195,10.2564 4.61103,12.9036 4.64242,5.20943 14.14458,5.98076 22.31689,1.81156 z M 531.39221,329.85566 c -17.68006,-6.60983 -25.04081,-24.72669 -17.78529,-43.77459 3.64113,-9.55905 10.40151,-18.00522 13.08436,-16.34713 0.54904,0.33933 1.00579,3.8529 1.015,7.80794 0.0136,5.83711 0.53587,8.22199 2.77397,12.66713 7.56014,15.01537 24.7846,19.11023 44.45928,10.56954 5.049,-2.19175 -1.36017,10.75115 -9.11634,18.40985 -3.09851,3.05958 -8.2515,6.82496 -11.45108,8.3675 -7.11408,3.42976 -17.24535,4.44367 -22.9799,2.29976 z m -98.3785,-1.06229 c -18.10925,-5.66242 -26.25167,-25.93342 -17.81717,-44.3568 3.07689,-6.72081 8.4776,-14.12996 10.33089,-14.17279 1.00937,-0.0233 1.17165,0.95308 0.66087,3.97635 -0.90726,5.37003 1.08906,16.62217 3.80949,21.47199 3.07584,5.48342 9.55151,10.12214 16.21109,11.61248 7.37219,1.64983 15.5673,0.13983 25.30563,-4.66273 4.02874,-1.98681 7.60382,-3.33354 7.94461,-2.99275 1.15863,1.15863 -4.79438,11.67593 -9.38931,16.58827 -10.79892,11.54492 -24.93331,16.32655 -37.0561,12.53598 z m 183.17582,-57.43285 c -14.75531,-3.90068 -24.04846,-17.94969 -20.52614,-31.0306 0.64901,-2.41023 2.9454,-8.09805 5.10308,-12.63959 4.61924,-9.72267 4.88605,-13.15957 1.34801,-17.36429 -3.66474,-4.3553 -10.43097,-6.09318 -23.72308,-6.09318 -10.86457,0 -10.93097,-0.0145 -10.29018,-2.25 4.195,-14.63481 4.30301,-19.76195 0.45963,-21.81887 -3.75557,-2.00992 -1.25106,-1.98454 9.73076,0.0986 18.06851,3.42741 39.89837,9.71058 57.89792,16.66443 11.08754,4.28351 12.31086,5.30584 6.34894,5.30584 -5.0361,0 -12.47435,3.3926 -17.15467,7.82428 -1.54314,1.46118 -4.24314,5.5765 -6,9.14517 -2.73408,5.55371 -3.19427,7.57203 -3.19427,14.00952 0,6.42143 0.40594,8.21161 2.77658,12.24445 5.48053,9.3233 17.06156,12.8767 30.29357,9.29496 3.58456,-0.97029 6.80806,-1.4735 7.16333,-1.11823 1.42939,1.42939 -9.45991,10.84102 -16.45429,14.22145 -7.64297,3.6939 -17.54557,5.15396 -23.77919,3.50606 z M 510.9796,247.24737 c -9.78818,-4.93444 -14.72276,-12.29343 -15.91922,-23.74048 -0.81217,-7.77047 1.23016,-14.70501 8.40461,-28.53701 l 5.58259,-10.76298 -1.63018,-3.41851 c -1.33012,-2.7893 -2.42142,-3.58571 -5.92902,-4.3269 l -4.29885,-0.90838 5.99105,-0.80547 c 7.76391,-1.04381 37.47445,0.0507 38.85515,1.43142 0.7384,0.7384 0.29349,1.0538 -1.48648,1.0538 -4.27906,0 -14.52705,5.81516 -18.7973,10.66643 -5.21917,5.92929 -8.26386,14.05008 -8.29116,22.11417 -0.0284,8.39504 3.5634,14.48637 10.71097,18.16464 6.893,3.54726 18.42372,3.62213 26.80371,0.17403 3.18226,-1.3094 6.06161,-2.10505 6.39855,-1.76811 0.95548,0.95548 -4.36134,8.055 -10.03744,13.40292 -7.34142,6.91695 -13.47411,9.63919 -22.64705,10.05281 -6.77429,0.30547 -8.10088,0.0353 -13.70993,-2.79238 z m -92.72578,0.85951 c -3.77056,-0.88133 -9.6037,-4.57408 -12.3737,-7.83333 -2.54762,-2.99759 -6.061,-11.62122 -7.24815,-17.79069 -0.66146,-3.4375 -1.5941,-6.25 -2.07255,-6.25 -0.47844,0 -0.86989,-0.40627 -0.86989,-0.90283 0,-1.28288 16.19982,-12.70706 23.96799,-16.90232 l 6.53201,-3.52766 -2.63998,2.91641 c -9.76865,10.79149 -9.19461,26.46256 1.15991,31.66485 5.80357,2.91581 15.003,2.35885 23.16306,-1.40237 3.76338,-1.73465 7.11087,-2.88556 7.43885,-2.55757 1.91548,1.91548 -13.12723,16.38171 -20.82425,20.0262 -6.44419,3.05129 -11.0332,3.77478 -16.2333,2.55931 z m 131.93571,607.43086 c -17.76664,-0.49131 -62.60788,-3.33737 -77,-4.88717 -19.25885,-2.07387 -42.35792,-5.72742 -65.5,-10.36005 -17.21554,-3.44624 -21.68393,-3.96244 -38.1418,-4.40626 -16.34007,-0.44064 -19.27717,-0.77604 -23.78768,-2.71641 -9.85428,-4.2392 -15.41106,-12.79709 -24.47585,-37.69482 -7.66607,-21.05594 -9.75133,-25.56429 -13.99899,-30.26595 -5.55982,-6.15405 -14.00541,-19.52437 -20.04078,-31.7268 -14.77621,-29.87483 -24.10679,-66.91562 -27.64539,-109.74742 -1.45599,-17.6235 -0.59506,-62.79518 1.4933,-78.35076 5.26257,-39.19943 17.0563,-83.48597 31.06427,-116.64924 6.73959,-15.95567 18.68835,-39.90977 23.94331,-48 2.50075,-3.85 4.55644,-7.57215 4.56821,-8.27144 0.0118,-0.69929 1.1773,-3.01812 2.59006,-5.15295 4.10842,-6.20824 5.48446,-12.11096 4.38632,-18.8157 -3.21935,-19.65576 1.55422,-43.56263 13.43003,-67.25991 31.14658,-62.15069 80.86476,-99.02485 145.11499,-107.62648 14.28745,-1.91276 42.82366,-2.15129 60,-0.50152 34.46322,3.31015 69.50905,12.19463 100.74082,25.53884 5.90745,2.52404 11.08245,4.57924 11.5,4.56711 0.41755,-0.0121 1.79178,-3.24856 3.05384,-7.19208 6.01979,-18.80974 20.63599,-42.30213 35.66388,-57.32194 22.88155,-22.86927 51.0581,-35.46393 79.33934,-35.46393 22.38013,0 46.16773,10.70407 62.87558,28.29307 9.8397,10.35864 12.0702,17.23337 8.7514,26.97332 -2.2941,6.73285 -8.3748,13.09133 -16.20647,16.94686 -6.20123,3.05285 -7.38946,3.28675 -16.69736,3.28675 -9.38363,0 -10.54717,-0.23427 -18.29292,-3.68318 -10.87491,-4.84222 -17.01186,-6.11808 -27.26474,-5.6683 -9.76088,0.42821 -17.80391,3.63897 -26.56086,10.60304 -11.80607,9.38893 -27.41958,36.5485 -27.39592,47.65499 0.0105,4.91088 2.9715,8.21626 15.16956,16.93365 16.06803,11.48309 27.51822,20.53999 40.82385,32.29097 62.1304,54.871 91.99996,111.80246 91.99996,175.352 0,39.12525 -10.8406,77.04976 -30.42278,106.43031 -13.8453,20.77309 -35.32189,39.25823 -54.26409,46.70571 l -8.00827,3.14861 -5.22545,11.6161 c -20.11787,44.72179 -54.12855,93.95519 -89.57937,129.67391 -24.12982,24.31216 -40.12121,36.57583 -72.70811,55.75928 l -3.70811,2.18291 61.70811,0.007 c 50.6227,0.005 65.21114,0.32089 81.20811,1.75599 40.28201,3.61373 61.24936,7.25371 71.8023,12.46506 5.0452,2.49146 5.73452,3.19603 6.01922,6.15243 0.64936,6.74315 -6.02271,10.33271 -27.11958,14.59027 -44.66513,9.01348 -160.43398,15.12296 -243.20194,12.83413 z M 314.40491,613.98286 c 3.72037,-4.05563 7.32681,-12.664 10.9203,-26.06613 3.7521,-13.99369 14.03564,-48.15422 17.51543,-58.18387 4.02825,-11.61047 16.71091,-45.17134 22.86296,-60.5 13.4545,-33.5237 15.64951,-42.35545 12.54637,-50.48091 -2.92447,-7.65763 -8.28015,-10.26675 -14.48645,-7.05735 -3.93203,2.03333 -14.30812,13.57688 -20.25884,22.53826 -6.53669,9.84381 -17.4912,32.40036 -23.2146,47.80145 -8.05713,21.6809 -15.42652,51.54958 -19.20697,77.84727 -2.39347,16.64953 -2.43364,38.10284 -0.0856,45.70475 3.00646,9.73345 8.83342,13.38266 13.40737,8.39653 z" />
        <path
           style="fill:#ffffff;fill-opacity:1;stroke:none;stroke-width:15"
           d="m 302.03364,439.80337 c -27.81889,68.88486 -27.81889,92.72962 -29.1436,143.06856 -1.32471,50.33894 1.32471,84.78137 17.22122,116.57439 15.8965,31.79301 10.59767,34.44243 35.76714,62.26132 25.16947,27.81888 47.68952,14.57179 90.0802,3.97412 42.39069,-10.59767 95.37905,-43.71539 135.12032,-75.50841 39.74126,-31.79301 80.80724,-79.48253 91.40491,-109.95084 10.59767,-30.4683 26.49418,-47.68952 3.97413,-70.20957 -22.52005,-22.52005 -18.54593,-22.52005 -45.04011,-43.7154 C 574.92368,445.1022 531.20828,415.9586 487.49289,398.73739 443.77749,381.51617 372.24321,372.24321 348.39845,385.4903 c -23.84476,13.24709 -46.36481,54.31307 -46.36481,54.31307 z"
           id="path1" />
        <path
           id="rect12-2"
           style="fill:#000000"
           d="m 538.78437,444.57091 h 10.59767 v 2.64942 h -10.59767 z m 102.52651,-67.33247 c 0,10.97425 -8.59984,19.87063 -19.20828,19.87063 -10.60844,0 -19.20828,-8.89638 -19.20828,-19.87063 0,-10.97425 8.59984,-19.87064 19.20828,-19.87064 10.60844,0 19.20828,8.89639 19.20828,19.87064 z m -71.30142,71.49418 c 0,10.97425 -8.59984,19.87064 -19.20828,19.87064 -10.60844,0 -19.20828,-8.89639 -19.20828,-19.87064 0,-10.97425 8.59984,-19.87063 19.20828,-19.87063 10.60844,0 19.20828,8.89638 19.20828,19.87063 z m 361.27552,75.44114 c 0,14.26652 -12.1583,25.83182 -27.1565,25.83182 -14.9981,0 -27.1565,-11.5653 -27.1565,-25.83182 0,-14.26652 12.1584,-25.83183 27.1565,-25.83183 14.9982,0 27.1565,11.5653 27.1565,25.83183 z m -68.4799,51.86157 c 0,14.26652 -12.15841,25.83183 -27.15655,25.83183 -14.99814,0 -27.15653,-11.56531 -27.15653,-25.83183 0,-14.26652 12.15839,-25.83183 27.15653,-25.83183 14.99814,0 27.15655,11.56531 27.15655,25.83183 z M 762.07801,441.81151 c 0,14.26652 -12.15839,25.83183 -27.15653,25.83183 -14.99814,0 -27.15653,-11.56531 -27.15653,-25.83183 0,-14.26652 12.1584,-25.83182 27.15653,-25.83182 14.99813,0 27.15653,11.5653 27.15653,25.83182 z m -80.7697,-2.09698 c 0,18.65622 -14.53076,33.78008 -32.45537,33.78008 -17.92461,0 -32.45537,-15.12386 -32.45537,-33.78008 0,-18.65622 14.53076,-33.78008 32.45537,-33.78008 17.92461,0 32.45537,15.12386 32.45537,33.78008 z m 170.10735,-58.72965 c 0,0 -1.3247,-41.06598 38.41652,-75.5084 39.7413,-34.44243 84.7814,-35.76715 105.9767,-15.89651 21.19542,19.87064 22.65872,28.77876 -1.3247,19.87064 -46.3648,-17.22121 -76.8331,-6.62355 -100.6778,22.52004 -23.8448,29.1436 -23.8448,43.71539 -26.4942,66.23545 -2.6494,22.52005 -15.89652,-17.22122 -15.89652,-17.22122 z M 459.8367,781.08075 c 3.13218,62.98534 24.34921,114.46994 44.50522,137.73595 13.08707,23.1665 30.0181,22.3746 47.60081,18.1994 37.24459,1.1624 83.08853,-12.6862 169.58411,-76.46053 C 775.45667,811.56711 845.70232,738.05736 825.64282,689.8472 796.19628,635.94815 705.83271,586.5306 636.42444,567.02422 541.34916,545.70338 522.23387,567.19835 500.08182,592.71561 468.01133,630.33151 450.77683,723.86773 459.8367,781.08075 Z M 673.90468,432.64852 c 0,11.70587 -12.75149,21.19534 -28.48125,21.19534 -15.72975,0 -28.48124,-9.48948 -28.48124,-21.19534 0,-11.70586 12.75149,-21.19534 28.48124,-21.19534 15.72976,0 28.48125,9.48947 28.48125,21.19534 z m 39.7225,584.63938 c -53.82383,-2.6579 -93.95717,-7.6995 -132,-16.5818 -4.58412,-1.0704 -14.24765,-1.8594 -28,-2.2862 -20.7874,-0.6451 -21.05368,-0.6814 -26.30245,-3.5782 -5.13179,-2.8323 -10.11417,-8.4111 -13.44238,-15.0515 -0.82698,-1.65 -4.0888,-10.2 -7.24848,-19 -3.15968,-8.8 -6.56657,-17.6211 -7.57087,-19.6025 l -1.82599,-3.6025 34.39042,35.2106 C 553.61944,995.3123 674.35531,965.59 712.084,946.2818 806.51423,897.95579 857.74788,820.52377 909.29378,739.46718 927.59328,710.69096 787.08102,615.99188 837.64486,658.54771 873.40708,688.64613 822.40648,644.14508 809.50313,634.56884 742.06336,584.51829 651.5208,545.53223 576.12718,534.0812 c -13.17729,-2.00141 -52.68428,-1.68508 -61.31205,0.49093 -3.74663,0.94493 -7.15854,1.71806 -7.58203,1.71806 -0.42349,0 0.76752,-3.0375 2.64667,-6.75 3.39756,-6.71228 3.41266,-6.80309 2.70234,-16.25 -1.9207,-25.54453 1.18753,-41.16768 13.03126,-65.5 4.89443,-10.05534 14.82638,-26.5 16.00501,-26.5 0.26934,0 -1.11496,2.8125 -3.07623,6.25 -7.56779,13.264 -8.91538,16.85677 -8.90823,23.75 0.008,7.71584 2.51034,12.60352 8.29367,16.19959 3.06705,1.9071 5.06739,2.29687 11.69959,2.27971 7.01805,-0.0182 8.75238,-0.41138 14.12968,-3.20365 3.37132,-1.75063 6.36094,-2.9517 6.64359,-2.66905 0.79031,0.79031 -1.82154,9.82509 -4.37607,15.13747 -2.93222,6.09783 -11.78867,14.94498 -19.15729,19.13719 -3.16805,1.80239 -5.54639,3.62284 -5.2852,4.04546 0.26119,0.42261 8.25323,1.0477 17.76009,1.38908 42.00961,1.50854 82.68387,11.2018 134.67973,32.09613 9.01699,3.62344 17.16296,6.58807 18.10217,6.58807 1.32612,0 1.95043,-1.46513 2.7943,-6.55776 0.59766,-3.60677 2.24922,-8.54152 3.67012,-10.96612 2.8456,-4.85563 8.85941,-10.01409 10.49566,-9.00283 0.57377,0.35461 1.04322,2.78081 1.04322,5.39156 0,7.09793 3.50435,16.29049 8.27728,21.71282 7.15741,8.13124 13.37714,9.19637 28.35535,4.85586 12.67515,-3.67312 33.48183,-13.84712 41.35266,-20.22053 l 2.3893,-1.93475 -3.69665,-5.03584 c -8.42062,-11.47119 -11.7242,-24.35249 -9.26739,-36.13541 1.58642,-7.6085 2.87109,-10.4935 7.50628,-16.857 3.82831,-5.25575 6.08317,-5.5728 6.08317,-0.85534 0,5.89873 3.71787,15.91574 7.58333,20.43166 6.90292,8.0645 18.04061,11.12005 28.21512,7.74062 18.26695,-6.06732 41.45315,-32.24678 46.55665,-52.56694 1.6823,-6.69845 1.392,-7.59831 -2.9089,-9.01777 -4.1145,-1.35788 -12.8027,-9.00261 -16.0153,-14.09174 -3.8733,-6.13562 -6.4508,-15.3773 -7.1169,-25.51763 -0.6025,-9.17218 -0.7338,-9.58781 -3.7193,-11.77022 -1.7021,-1.24427 -6.6947,-3.76612 -11.0947,-5.60412 -4.4,-1.838 -8.34755,-3.63462 -8.77234,-3.99251 -1.26657,-1.06707 3.08113,-13.74503 8.75777,-25.5378 15.83107,-32.88782 39.55067,-56.47343 68.54367,-68.15654 32.2409,-12.99187 61.6836,-9.52433 88.51042,10.42405 13.5277,10.05923 19.3932,18.22038 19.4385,27.0464 0.044,8.63302 -5.0946,16.40236 -13.9822,21.1394 -11.3037,6.02483 -22.67212,5.92271 -36.96312,-0.33202 -10.7625,-4.71039 -16.9042,-5.94182 -26.6135,-5.33608 -6.9303,0.43237 -9.5366,1.12533 -15.7157,4.1785 -16.7735,8.28797 -32.3663,28.16208 -38.7378,49.37417 -2.0922,6.96537 -2.1185,7.5054 -0.5624,11.57991 1.953,5.11389 4.0335,7.10009 17.0967,16.32209 50.6474,35.75468 88.71282,76.80648 109.25842,117.83042 14.1385,28.23075 20.3706,54.64003 20.4164,86.51702 0.058,40.53531 -10.7957,77.8409 -31.2731,107.48675 -13.59262,19.67845 -35.23492,37.51605 -53.40172,44.01377 -6.513,2.3295 -7.3617,3.05082 -9.2797,7.88733 -9.4103,23.72947 -35.6827,68.03184 -56.0745,94.55662 -33.3476,43.37731 -64.81948,71.77581 -105.29466,95.01231 -7.213,4.1409 -13.05319,7.9696 -12.97819,8.5083 0.0803,0.5769 4.34637,0.9227 10.3817,0.8415 56.56264,-0.7615 110.60505,-0.5525 124.74535,0.4826 48.4564,3.5468 75.1906,7.6408 86.0405,13.176 4.54642,2.3194 5.29892,3.3345 4.45132,6.005 -2.87222,9.0494 -56.94592,17.064 -141.99182,21.0455 -29.37416,1.3752 -123.7082,1.9779 -145,0.9265 z m 227.3059,-371.58817 c 4.0182,-1.96573 7.1314,-4.09954 6.9181,-4.7418 -0.2132,-0.64226 -2.6104,-1.44354 -5.327,-1.78063 -2.7165,-0.33709 -6.9377,-1.63244 -9.3802,-2.87854 -5.932,-3.02625 -13.9077,-11.35589 -17.5529,-18.33185 -1.6302,-3.11958 -3.2898,-5.67304 -3.6882,-5.67434 -1.6665,-0.005 -3.944,6.61672 -4.4817,13.0312 -0.7435,8.86758 0.9936,15.18732 5.3799,19.57369 6.4786,6.47854 15.9752,6.74936 28.132,0.80227 z m -99.16194,-48.00994 c 5.25584,-1.7844 12.35604,-5.96557 12.35604,-7.27622 0,-0.46834 -2.06578,-1.13468 -4.59062,-1.48075 -6.37344,-0.87357 -12.39451,-3.7324 -17.4387,-8.27996 -4.40637,-3.97253 -8.94362,-12.13099 -8.96091,-16.11267 -0.0138,-3.1754 -1.35282,-2.80009 -4.43713,1.24365 -9.68881,12.70268 -8.37838,27.06983 2.92736,32.09471 4.13148,1.83625 14.46464,1.73942 20.14396,-0.18876 z m 68.32784,-56.38522 c 4.2343,-2.16018 13.0282,-9.603 13.0282,-11.02659 0,-0.41662 -2.924,-0.52278 -6.4977,-0.23591 -9.2379,0.74153 -13.7872,-1.26146 -22.2883,-9.81331 -3.7936,-3.81622 -7.3814,-6.93857 -7.9729,-6.93857 -1.2228,0 -3.2632,8.48723 -3.1972,13.29922 0.056,4.11231 2.2519,10.2564 4.611,12.9036 4.6424,5.20943 14.1446,5.98076 22.3169,1.81156 z M 713.82986,494.91299 c -17.68006,-6.60983 -25.04081,-24.72669 -17.78529,-43.77459 3.64113,-9.55905 10.40151,-18.00522 13.08436,-16.34713 0.54904,0.33933 1.00579,3.8529 1.015,7.80794 0.0136,5.83711 0.53587,8.22199 2.77397,12.66713 7.56014,15.01537 24.7846,19.11023 44.45928,10.56954 5.049,-2.19175 -1.36017,10.75115 -9.11634,18.40985 -3.09851,3.05958 -8.2515,6.82496 -11.45108,8.3675 -7.11408,3.42976 -17.24535,4.44367 -22.9799,2.29976 z m -98.3785,-1.06229 c -18.10925,-5.66242 -26.25167,-25.93342 -17.81717,-44.3568 3.07689,-6.72081 8.4776,-14.12996 10.33089,-14.17279 1.00937,-0.0233 1.17165,0.95308 0.66087,3.97635 -0.90726,5.37003 1.08906,16.62217 3.80949,21.47199 3.07584,5.48342 9.55151,10.12214 16.21109,11.61248 7.37219,1.64983 15.5673,0.13983 25.30563,-4.66273 4.02874,-1.98681 7.60382,-3.33354 7.94461,-2.99275 1.15863,1.15863 -4.79438,11.67593 -9.38931,16.58827 -10.79892,11.54492 -24.93331,16.32655 -37.0561,12.53598 z m 183.17582,-57.43285 c -14.75531,-3.90068 -24.04846,-17.94969 -20.52614,-31.0306 0.64901,-2.41023 2.9454,-8.09805 5.10308,-12.63959 4.61924,-9.72267 4.88605,-13.15957 1.34801,-17.36429 -3.66474,-4.3553 -10.43097,-6.09318 -23.72308,-6.09318 -10.86457,0 -10.93097,-0.0145 -10.29018,-2.25 4.195,-14.63481 4.30301,-19.76195 0.45963,-21.81887 -3.75557,-2.00992 -1.25106,-1.98454 9.73076,0.0986 18.06851,3.42741 39.89837,9.71058 57.89792,16.66443 11.08754,4.28351 12.31086,5.30584 6.34894,5.30584 -5.0361,0 -12.47435,3.3926 -17.15467,7.82428 -1.54314,1.46118 -4.24314,5.5765 -6,9.14517 -2.73408,5.55371 -3.19427,7.57203 -3.19427,14.00952 0,6.42143 0.40594,8.21161 2.77658,12.24445 5.48053,9.3233 17.06156,12.8767 30.29357,9.29496 3.58456,-0.97029 6.80806,-1.4735 7.16333,-1.11823 1.42939,1.42939 -9.45991,10.84102 -16.45429,14.22145 -7.64297,3.6939 -17.54557,5.15396 -23.77919,3.50606 z M 693.41725,412.3047 c -9.78818,-4.93444 -14.72276,-12.29343 -15.91922,-23.74048 -0.81217,-7.77047 1.23016,-14.70501 8.40461,-28.53701 l 5.58259,-10.76298 -1.63018,-3.41851 c -1.33012,-2.7893 -2.42142,-3.58571 -5.92902,-4.3269 l -4.29885,-0.90838 5.99105,-0.80547 c 7.76391,-1.04381 37.47445,0.0507 38.85515,1.43142 0.7384,0.7384 0.29349,1.0538 -1.48648,1.0538 -4.27906,0 -14.52705,5.81516 -18.7973,10.66643 -5.21917,5.92929 -8.26386,14.05008 -8.29116,22.11417 -0.0284,8.39504 3.5634,14.48637 10.71097,18.16464 6.893,3.54726 18.42372,3.62213 26.80371,0.17403 3.18226,-1.3094 6.06161,-2.10505 6.39855,-1.76811 0.95548,0.95548 -4.36134,8.055 -10.03744,13.40292 -7.34142,6.91695 -13.47411,9.63919 -22.64705,10.05281 -6.77429,0.30547 -8.10088,0.0353 -13.70993,-2.79238 z m -92.72578,0.85951 c -3.77056,-0.88133 -9.6037,-4.57408 -12.3737,-7.83333 -2.54762,-2.99759 -6.061,-11.62122 -7.24815,-17.79069 -0.66146,-3.4375 -1.5941,-6.25 -2.07255,-6.25 -0.47844,0 -0.86989,-0.40627 -0.86989,-0.90283 0,-1.28288 16.19982,-12.70706 23.96799,-16.90232 l 6.53201,-3.52766 -2.63998,2.91641 c -9.76865,10.79149 -9.19461,26.46256 1.15991,31.66485 5.80357,2.91581 15.003,2.35885 23.16306,-1.40237 3.76338,-1.73465 7.11087,-2.88556 7.43885,-2.55757 1.91548,1.91548 -13.12723,16.38171 -20.82425,20.0262 -6.44419,3.05129 -11.0332,3.77478 -16.2333,2.55931 z m 131.93571,607.43089 c -17.76664,-0.4913 -62.60788,-3.3374 -77,-4.8872 -19.25885,-2.0739 -42.35792,-5.7274 -65.5,-10.36 -17.21554,-3.4463 -21.68393,-3.9625 -38.1418,-4.4063 -16.34007,-0.4406 -19.27717,-0.776 -23.78768,-2.7164 -9.85428,-4.2392 -15.41106,-12.7971 -24.47585,-37.6948 -7.66607,-21.056 -9.75133,-25.5643 -13.99899,-30.266 -5.55982,-6.154 -14.00541,-19.52431 -20.04078,-31.72681 -14.77621,-29.87481 -24.10679,-66.9156 -27.64539,-109.7474 -1.45599,-17.6235 -0.59506,-62.79518 1.4933,-78.35076 5.26257,-39.19943 17.0563,-83.48597 31.06427,-116.64924 6.73959,-15.95567 18.68835,-39.90977 23.94331,-48 2.50075,-3.85 4.55644,-7.57215 4.56821,-8.27144 0.0118,-0.69929 1.1773,-3.01812 2.59006,-5.15295 4.10842,-6.20824 5.48446,-12.11096 4.38632,-18.8157 -3.21935,-19.65576 1.55422,-43.56263 13.43003,-67.25991 31.14658,-62.15069 80.86476,-99.02485 145.11499,-107.62648 14.28745,-1.91276 42.82366,-2.15129 60,-0.50152 34.46322,3.31015 69.50905,12.19463 100.74082,25.53884 5.90745,2.52404 11.08245,4.57924 11.5,4.56711 0.41755,-0.0121 1.79178,-3.24856 3.05384,-7.19208 6.01979,-18.80974 20.63594,-42.30213 35.66384,-57.32194 22.8816,-22.86927 51.0581,-35.46393 79.3393,-35.46393 22.3802,0 46.16782,10.70407 62.87562,28.29307 9.8397,10.35864 12.0702,17.23337 8.7514,26.97332 -2.2941,6.73285 -8.3748,13.09133 -16.2065,16.94686 -6.2012,3.05285 -7.3894,3.28675 -16.69732,3.28675 -9.3836,0 -10.5472,-0.23427 -18.2929,-3.68318 -10.8749,-4.84222 -17.0119,-6.11808 -27.2648,-5.6683 -9.7609,0.42821 -17.8039,3.63897 -26.5608,10.60304 -11.8061,9.38893 -27.4196,36.5485 -27.3959,47.65499 0.01,4.91088 2.9715,8.21626 15.1695,16.93365 16.068,11.48309 27.5182,20.53999 40.8239,32.29097 62.13042,54.871 91.99992,111.80246 91.99992,175.352 0,39.12525 -10.8406,77.04976 -30.4228,106.43031 -13.8453,20.77309 -35.32192,39.25823 -54.26412,46.70571 l -8.0082,3.14861 -5.2255,11.6161 c -20.1179,44.72179 -54.1285,93.9552 -89.5793,129.67391 -24.12982,24.3122 -40.12121,36.5758 -72.70811,55.7593 l -3.70811,2.1829 61.70811,0.01 c 50.62271,0.01 65.21111,0.3209 81.20801,1.756 40.2821,3.6137 61.2494,7.2537 71.8024,12.4651 5.04522,2.4914 5.73452,3.196 6.01922,6.1524 0.6493,6.7431 -6.02272,10.3327 -27.11962,14.5903 -44.6651,9.0134 -160.43394,15.1229 -243.2019,12.8341 z M 496.84256,779.04019 c 3.72037,-4.05563 7.32681,-12.664 10.9203,-26.06613 3.7521,-13.99369 14.03564,-48.15422 17.51543,-58.18387 4.02825,-11.61047 16.71091,-45.17134 22.86296,-60.5 13.4545,-33.5237 15.64951,-42.35545 12.54637,-50.48091 -2.92447,-7.65763 -8.28015,-10.26675 -14.48645,-7.05735 -3.93203,2.03333 -14.30812,13.57688 -20.25884,22.53826 -6.53669,9.84381 -17.4912,32.40036 -23.2146,47.80145 -8.05713,21.6809 -15.42652,51.54958 -19.20697,77.84727 -2.39347,16.64953 -2.43364,38.10284 -0.0856,45.70475 3.00646,9.73345 8.83342,13.38266 13.40737,8.39653 z" />
        <path
           style="fill:#ffffff;fill-opacity:1;stroke:none;stroke-width:15"
           d="m 484.47129,604.8607 c -27.81889,68.88486 -27.81889,92.72962 -29.1436,143.06856 -1.32471,50.33894 1.32471,84.78137 17.22122,116.57439 15.8965,31.79304 10.59767,34.44244 35.76714,62.26135 25.16947,27.8189 47.68952,14.5718 90.0802,3.9741 42.39069,-10.5977 95.37905,-43.71541 135.12032,-75.50842 39.74126,-31.79301 80.80724,-79.48253 91.40491,-109.95084 10.59767,-30.4683 26.49418,-47.68952 3.97413,-70.20957 C 806.37556,652.55022 810.34968,652.55022 783.8555,631.35487 757.36133,610.15953 713.64593,581.01593 669.93054,563.79472 626.21514,546.5735 554.68086,537.30054 530.8361,550.54763 506.99134,563.79472 484.47129,604.8607 484.47129,604.8607 Z"
           id="path1-2" />
      </g>
      <ellipse
         style="fill:#ffffff;stroke-width:8.32507"
         id="path2"
         cx="301.80319"
         cy="245.86584"
         rx="7.3521943"
         ry="9.5578527"
         transform="rotate(31.2284)" />
      <ellipse
         style="fill:#ffffff;stroke-width:9.40771"
         id="path2-3"
         cx="376.14011"
         cy="258.85959"
         rx="8.3346529"
         ry="10.766644"
         transform="matrix(0.85822985,0.51326555,-0.52365008,0.85193345,0,0)" />
      <ellipse
         style="fill:#ffffff;stroke-width:6.54517"
         id="path2-9"
         cx="313.81876"
         cy="231.70702"
         rx="5.8846869"
         ry="7.3811369"
         transform="matrix(0.87210623,0.48931659,-0.54802434,0.83646239,0,0)" />
      <ellipse
         style="fill:#ffffff;stroke-width:6.54517"
         id="path2-9-8"
         transform="matrix(0.87210623,0.48931659,-0.54802434,0.83646239,0,0)"
         ry="7.3811369"
         rx="5.8846869"
         cy="249.78116"
         cx="397.22183" />
      <ellipse
         style="fill:#ffffff;stroke-width:6.54517"
         id="path2-9-4"
         cx="328.03116"
         cy="244.56622"
         rx="5.8846869"
         ry="7.3811369"
         transform="matrix(0.87210623,0.48931659,-0.54802434,0.83646239,0,0)" />
      <text
         xml:space="preserve"
         id="text3"
         style="font-size:133.333px;text-align:start;writing-mode:lr-tb;direction:ltr;white-space:pre;shape-inside:url(#rect3);fill:#ffffff;stroke-width:15"
         transform="matrix(1.0797924,0,0,1.0209122,-22.388844,-41.031254)"><tspan
           x="319"
           y="526.52573"
           id="tspan2"><tspan
             style="font-family:Bahnschrift;-inkscape-font-specification:'Bahnschrift, Normal'"
             id="tspan1">Donate</tspan></tspan></text>
      <path
         style="fill:#ffffff;stroke-width:14.7405"
         d="m 200.81981,389.25487 c 17.75803,-9.54301 49.98441,-6.40333 64.81679,0.9543 10.50721,5.21213 11.19998,-27.38332 36.84791,-29.10619 14.20641,-0.9543 18.2962,10.72797 14.20641,9.06586 -4.39208,-1.78496 -26.71693,-11.15088 -38.6237,16.70028 -5.39771,12.6258 1.96424,14.5635 7.99111,20.51747 12.70856,12.55484 -8.84295,-4.55915 -27.08098,-11.4516 -12.75838,-4.8216 -28.37759,-7.04547 -44.83901,-6.20297 -9.32296,0.47715 -19.53383,3.81721 -13.31853,-0.47715 z"
         id="path3" />
    </g>
  </g>
</svg>
